# xmcd CD database file
#
# Track frame offsets:
#	150
#	15690
#	32158
#	52480
#	69402
#	86506
#	102626
#	119324
#	134194
#	150804
#	168154
#	182972
#	198844
#	218029
#	238460
#	253937
#	272832
#	290324
#	308068
#	322568
#
# Disc length: 4522 seconds
#
# Revision: 0
# Processed by: cddbd v1.5.1PL0 Copyright (c) Steve Scherf et al.
# Submitted via: CDex 1.50
#
DISCID=2611a814
DTITLE=Guilherme and Santiago - As 20 Mais
DYEAR=2004
DGENRE=Country
TTITLE0=Dona Do Meu Coração
TTITLE1=O Nosso Amor
TTITLE2=Habito
TTITLE3=Número Dois
TTITLE4=Pop Star
TTITLE5=Do Doutro Lado Da Cidade
TTITLE6=Tempestade De Paixão
TTITLE7=Só Falta Você
TTITLE8=A Outra
TTITLE9=Acorda Pra Vida
TTITLE10=Som E Imagem
TTITLE11=Ai Que Eu To Lá
TTITLE12=O Casado E O Solteiro
TTITLE13=Ainda Estou Sozinho
TTITLE14=No Limite
TTITLE15=Me Esqueça
TTITLE16=Aonde Tem Sanfona Tem Forró E Arrastapé
TTITLE17=Peão Não Chora
TTITLE18=Pinga Com Limão
TTITLE19=Azul
EXTD=YEAR: 2004
EXTT0=
EXTT1=
EXTT2=
EXTT3=
EXTT4=
EXTT5=
EXTT6=
EXTT7=
EXTT8=
EXTT9=
EXTT10=
EXTT11=
EXTT12=
EXTT13=
EXTT14=
EXTT15=
EXTT16=
EXTT17=
EXTT18=
EXTT19=
PLAYORDER=
